# xmcd
#
# Track frame offsets:
#	150
#	15995
#	31082
#	48325
#	64527
#	79027
#	93402
#	111635
#	127422
#	141950
#	155315
#	167272
#	180900
#	193682
#	206342
#	218655
#	231510
#	246492
#	259030
#	272867
#	287580
#	299962
#
# Disc length: 4194 seconds
#
# Revision: 3
# Processed by: cddbd v1.5.2PL0 Copyright (c) Steve Scherf et al.
# Submitted via: audiograbber 1.83.01
#
DISCID=45106016
DTITLE=Veikko Ahvenainen - Meksikon pikajuna 1998
DYEAR=1998
DGENRE=Oldies
TTITLE0=Meksikon pikajuna
TTITLE1=Tico-tico
TTITLE2=Guapita
TTITLE3=Kuiskauksia
TTITLE4=Pikku Syntinen
TTITLE5=Kesäillan kaiho
TTITLE6=Mandoliinitango
TTITLE7=Näkemiin Argentina
TTITLE8=Tavallinen tyttö
TTITLE9=Unskin pubissa
TTITLE10=Ilta Skanssissa
TTITLE11=Sinulle kuuluu lempeni
TTITLE12=Syvä kuin meri
TTITLE13=Riemuliiterin tango
TTITLE14=Tähtisumua
TTITLE15=Sulle salaisuuden kertoa mä voisin
TTITLE16=Rovaniemen markkinoilla
TTITLE17=Pekan jenkka
TTITLE18=Pohjolan yö
TTITLE19=Syysilta erämaassa
TTITLE20=Paavon parempi polkka
TTITLE21=Polvijärven polkka
EXTD=
EXTT0=
EXTT1=
EXTT2=
EXTT3=
EXTT4=
EXTT5=
EXTT6=
EXTT7=
EXTT8=
EXTT9=
EXTT10=
EXTT11=
EXTT12=
EXTT13=
EXTT14=
EXTT15=
EXTT16=
EXTT17=
EXTT18=
EXTT19=
EXTT20=
EXTT21=
PLAYORDER=
